<svg id="Layer_1" data-name="Layer 1" xmlns="http://www.w3.org/2000/svg" viewBox="0 0 148.65 22.63"><defs><style>.cls-1{fill:#fff;}</style></defs><title>Untitled-2</title><polygon class="cls-1" points="0 22.47 0 0.16 13.16 0.16 13.16 1.96 1.99 1.96 1.99 11.17 11.49 11.17 11.49 12.94 1.99 12.94 1.99 22.47 0 22.47"/><rect class="cls-1" x="27.94" y="0.16" width="1.99" height="22.31"/><path class="cls-1" d="M284.4,299.47c2-.83,3-2.57,3-5.2q0-5.61-6.58-5.62h-7.92V311h8.41a7.93,7.93,0,0,0,5.08-1.41q1.76-1.41,1.75-4.78Q288.09,300.63,284.4,299.47Zm-9.56-9.05h5.87a5.31,5.31,0,0,1,3.48,1,3.82,3.82,0,0,1,1.14,3.08,4.45,4.45,0,0,1-1,3.2,4.4,4.4,0,0,1-3.29,1.07h-6.16Zm10,17.78a5.63,5.63,0,0,1-3.6,1h-6.38v-8.73H281q5,0,5,4.23A4.25,4.25,0,0,1,284.82,308.2Z" transform="translate(-225.32 -288.49)"/><path class="cls-1" d="M301,304.25q0,5.08,5.55,5.08a6.7,6.7,0,0,0,4.33-1.19,4.74,4.74,0,0,0,1.45-3.89V288.49h2v15.76q0,3.63-2,5.25a8.8,8.8,0,0,1-5.73,1.62,8.59,8.59,0,0,1-5.68-1.62q-1.9-1.62-1.91-5.25V288.49h2Z" transform="translate(-225.32 -288.49)"/><path class="cls-1" d="M342.55,301.78q4.31-1.15,4.3-6.51,0-3.43-1.71-5a7.48,7.48,0,0,0-5.22-1.59h-8.19V311h2v-8.79h6.81l4.4,8.79h2.21Zm-2.63-1.38h-6.2v-10h6.2a4.25,4.25,0,0,1,4.88,4.88Q344.8,300.4,339.92,300.4Z" transform="translate(-225.32 -288.49)"/><polygon class="cls-1" points="141.49 22.47 139.5 22.47 139.5 13.03 132.34 0.16 134.56 0.16 140.49 10.98 146.4 0.16 148.65 0.16 141.49 13.03 141.49 22.47"/></svg>